<svg height="24" viewBox="0 -960 960 960" width="24" fill="#e8eaed" xmlns="http://www.w3.org/2000/svg"><path style="display:inline;stroke-width:40" d="M160-800c-22 0-40.818 7.849-56.484 23.516C87.849-760.818 80-742 80-720v480c0 22 7.849 40.818 23.516 56.484C119.182-167.849 138-160 160-160h267.969a322.46 322.46 0 0 1-8.36-19.219 332.481 332.481 0 0 1-7.109-19.765A244.314 244.314 0 0 1 402.969-240H160v-480h207.031l80 80H800v107.969c15.333 7.333 29.635 15.666 42.969 25C856.302-497.698 868.667-487 880-475v-165c0-2.75-.145-5.474-.39-8.125-1.717-18.554-9.417-34.651-23.126-48.36C840.818-712.15 822-720 800-720H480l-80-80H160zm520 320c-55.333 0-102.484 19.516-141.484 58.516-39 39-58.516 86.15-58.516 141.484 0 6.917.328 13.73.938 20.39a204.563 204.563 0 0 0 2.734 19.61c7.317 38.433 25.594 72.234 54.844 101.484C577.516-99.516 624.666-80 680-80c55.333 0 102.484-19.516 141.484-58.516 39-39 58.516-86.15 58.516-141.484 0-55.333-19.516-102.484-58.516-141.484-39-39-86.15-58.516-141.484-58.516zm-2.813 41.64 45.547 44.923h63.282v63.28l44.922 45.626-44.922 45.625v63.281h-63.282l-45.547 44.844-45.625-44.844h-63.28v-63.281l-44.923-45.625 44.922-45.625v-63.281h63.282l45.625-44.922zm0 38.126-34.062 34.062h-47.656v47.578l-33.985 34.063 33.985 33.984v47.656h47.656l34.063 34.063 33.984-34.063h47.656v-47.656l33.985-33.984-33.985-34.063v-47.578h-47.656l-33.985-34.062zm0 47.656c18.827 0 34.856 6.652 48.125 19.922 13.27 13.27 19.922 29.298 19.922 48.125 0 18.826-6.652 34.855-19.922 48.125-13.269 13.27-29.298 19.922-48.125 19.922v-136.094z"/></svg>