<svg xmlns="http://www.w3.org/2000/svg" width="24" height="24" fill="#e8eaed" viewBox="0 -960 960 960"><path d="M160-800c-22 0-40.818 7.849-56.484 23.516C87.849-760.818 80-742 80-720v480c0 22 7.849 40.818 23.516 56.484C119.182-167.849 138-160 160-160h267.969a326.987 326.987 0 0 1-15.469-38.984A244.315 244.315 0 0 1 402.969-240H160v-480h207.031l80 80H800v107.969c15.333 7.333 29.635 15.666 42.969 25C856.302-497.698 868.667-487 880-475v-165c0-22-7.849-40.818-23.516-56.484C840.818-712.151 822-720 800-720H480l-80-80zm520 320c-55.333 0-102.484 19.516-141.484 58.516-39 39-58.516 86.15-58.516 141.484 0 55.333 19.516 102.484 58.516 141.484C577.516-99.516 624.666-80 680-80c55.333 0 102.484-19.516 141.484-58.516 39-39 58.516-86.15 58.516-141.484 0-55.333-19.516-102.484-58.516-141.484-39-39-86.15-58.516-141.484-58.516zm-1.64 47.734c29.373 0 54.226 10.165 74.687 30.625 20.46 20.461 30.703 45.393 30.703 74.766 0 17.323-3.967 33.561-11.875 48.75-7.908 15.189-18.971 27.848-33.281 37.89v18.75c0 8.285-2.929 15.429-8.828 21.329-5.9 5.9-12.966 8.828-21.25 8.828h-60.313c-8.285 0-15.35-2.928-21.25-8.828-5.9-5.9-8.828-13.044-8.828-21.328v-18.75c-14.31-9.791-25.451-22.342-33.36-37.657-7.908-15.314-11.874-31.661-11.874-48.984 0-29.373 10.242-54.305 30.703-74.766 20.46-20.46 45.392-30.625 74.765-30.625zm0 30c-20.838 0-38.673 7.345-53.36 22.032-14.687 14.686-22.031 32.522-22.031 53.359 0 12.302 2.867 23.845 8.515 34.766 5.65 10.92 13.613 19.923 23.907 26.953l12.812 9.062v34.61h60.313v-34.61l12.734-9.062c10.293-7.03 18.336-16.033 23.984-26.953 5.649-10.921 8.438-22.464 8.438-34.766 0-20.837-7.345-38.673-22.031-53.36-14.687-14.686-32.444-22.03-53.282-22.03zm-45.235 241.094h90.39v15c0 4.268-1.41 7.894-4.296 10.781-2.887 2.887-6.436 4.297-10.703 4.297h-60.313c-4.268 0-7.816-1.41-10.703-4.297-2.887-2.887-4.375-6.513-4.375-10.78z" style="display:inline;stroke-width:40"/></svg>