<svg height="24" viewBox="0 -960 960 960" width="24" fill="#e8eaed" xmlns="http://www.w3.org/2000/svg"><path style="baseline-shift:baseline;display:inline;overflow:visible;vector-effect:none;enable-background:accumulate;stop-color:#000;stop-opacity:1" d="M160-800c-22 0-40.818 7.849-56.484 23.516C87.849-760.818 80-742 80-720v480c0 22 7.849 40.818 23.516 56.484C119.182-167.849 138-160 160-160h267.969a326.983 326.983 0 0 1-15.469-38.984A244.314 244.314 0 0 1 402.969-240H160v-480h207.031l80 80H800v107.969c15.333 7.333 29.635 15.666 42.969 25C856.302-497.698 868.667-487 880-475v-165c0-22-7.849-40.818-23.516-56.484C840.818-712.151 822-720 800-720H480l-80-80zm520 320c-55.333 0-102.484 19.516-141.484 58.516-39 39-58.516 86.15-58.516 141.484 0 55.333 19.516 102.484 58.516 141.484C577.516-99.516 624.666-80 680-80c55.333 0 102.484-19.516 141.484-58.516 39-39 58.516-86.15 58.516-141.484 0-55.333-19.516-102.484-58.516-141.484-39-39-86.15-58.516-141.484-58.516Zm-2.813 40.313c2.9 0 5.666.224 8.36.703 2.694.478 5.317 1.246 7.812 2.187 2.495.941 4.884 2.049 7.188 3.438 2.303 1.389 4.521 3.022 6.64 4.843.486.418.98.787 1.485 1.172.511.39 1.013.78 1.484 1.25a51.472 51.472 0 0 1 3.203 3.516c.989 1.189 1.889 2.345 2.735 3.594.011.017-.012.06 0 .078.831 1.23 1.65 2.459 2.343 3.75.717 1.331 1.305 2.668 1.875 4.062.749 1.83 1.3 3.766 1.797 5.703.015.056.064.1.078.157.047.185.113.36.157.546.03.128.048.263.078.391.006.105-.022.213 0 .313.446 1.993.826 3.99 1.015 6.093.14 1.556.235 3.15.235 4.766V-268.984c.419.32.76.69 1.172 1.015a80.592 80.592 0 0 1 11.093 10.625 76.996 76.996 0 0 1 4.61 5.938 79.366 79.366 0 0 1 4.062 6.406c.638 1.121 1.367 2.2 1.953 3.36 1.358 2.682 2.578 5.417 3.594 8.202 1.016 2.786 1.824 5.627 2.5 8.516.676 2.89 1.225 5.833 1.563 8.828.337 2.996.468 6.038.468 9.14 0 2.684-.155 5.309-.39 7.891-.236 2.583-.545 5.096-1.016 7.579a75.407 75.407 0 0 1-1.797 7.343c-.707 2.384-1.478 4.67-2.422 6.953a72.185 72.185 0 0 1-3.203 6.72 74.097 74.097 0 0 1-3.906 6.405c-1.416 2.087-2.956 4.184-4.61 6.172-1.653 1.99-3.42 3.89-5.312 5.782-2.774 2.774-5.684 5.234-8.672 7.5a76.606 76.606 0 0 1-6.797 4.609 73.369 73.369 0 0 1-7.187 3.828 72.17 72.17 0 0 1-7.578 2.969c-2.572.846-5.2 1.55-7.89 2.11-2.681.557-5.423.959-8.204 1.25-2.781.29-5.602.468-8.516.468-2.913 0-5.793-.178-8.593-.469-2.801-.29-5.523-.692-8.203-1.25a72.688 72.688 0 0 1-7.11-1.875c-2.328-.735-4.642-1.535-6.875-2.5-2.233-.965-4.425-2.089-6.562-3.281a75.072 75.072 0 0 1-6.25-3.906 82.478 82.478 0 0 1-11.328-9.453c-1.891-1.891-3.66-3.793-5.313-5.782-1.653-1.988-3.193-4.085-4.61-6.172a74.094 74.094 0 0 1-3.906-6.406 72.185 72.185 0 0 1-3.203-6.719c-.943-2.284-1.714-4.57-2.422-6.953a75.404 75.404 0 0 1-1.796-7.343c-.472-2.483-.78-4.996-1.016-7.579-.235-2.582-.39-5.207-.39-7.89 0-3.103.13-6.145.468-9.14.338-2.996.886-5.94 1.563-8.829.676-2.89 1.483-5.73 2.5-8.516 1.016-2.785 2.236-5.52 3.593-8.203.803-1.587 1.757-3.093 2.657-4.609a79.213 79.213 0 0 1 8.906-12.188 78.74 78.74 0 0 1 5.312-5.468 81.474 81.474 0 0 1 5.938-5l.078-.078V-393.125c0-3.232.292-6.307.86-9.297a44.706 44.706 0 0 1 2.577-8.672 43.024 43.024 0 0 1 4.22-7.812 49.276 49.276 0 0 1 5.937-7.188c.542-.542 1.162-.896 1.718-1.406 2.182-2 4.486-3.795 6.875-5.312 2.39-1.518 4.9-2.727 7.5-3.75a43.757 43.757 0 0 1 8.125-2.344 48.143 48.143 0 0 1 8.75-.781zm0 31.015c-4.395 0-8.12 1.48-11.093 4.453-.991.991-1.761 2.132-2.422 3.281a14.949 14.949 0 0 0-1.485 3.672c-.17.65-.303 1.341-.39 2.032-.094.69-.156 1.376-.156 2.109v93.047h31.015v-15.469h-15.468v-15.547h15.468v-31.015h-15.468v-15.547h15.468v-15.469c0-.775-.06-1.538-.156-2.266a15.334 15.334 0 0 0-.781-3.125 14.596 14.596 0 0 0-1.328-2.812c-.618-1-1.312-2.015-2.188-2.89-2.974-2.974-6.62-4.454-11.015-4.454z"/></svg>